HIERARCHY
ROOT hip
{
	OFFSET 0.000000 0.000000 0.000000 
	CHANNELS 6 Xposition Yposition Zposition Xrotation Zrotation Yrotation
	JOINT abdomen
	{
		OFFSET 0.000000 3.402643 0.000000 
		CHANNELS 3 Xrotation Zrotation Yrotation
		JOINT chest
		{
			OFFSET 0.000000 8.438565 -0.680529 
			CHANNELS 3 Xrotation Zrotation Yrotation
			JOINT neck
			{
				OFFSET 0.000000 10.207942 -0.272212 
				CHANNELS 3 Xrotation Zrotation Yrotation
				JOINT head
				{
					OFFSET 0.000000 3.130431 0.000000 
					CHANNELS 3 Xrotation Zrotation Yrotation
					End Site
					{
						OFFSET 0.000000 3.130435 0.000000 
					}
				}
			}
			JOINT lCollar
			{
				OFFSET 3.470700 6.669187 -0.816635 
				CHANNELS 3 Yrotation Zrotation Xrotation
				JOINT lShldr
				{
					OFFSET 3.198488 0.000000 0.000000 
					CHANNELS 3 Zrotation Yrotation Xrotation
					JOINT lForeArm
					{
						OFFSET 10.139888 0.000000 0.000000 
						CHANNELS 3 Yrotation Zrotation Xrotation
						JOINT lHand
						{
							OFFSET 8.370511 0.000000 0.000000 
							CHANNELS 3 Zrotation Yrotation Xrotation
							End Site
							{
								OFFSET 4.083176 0.000000 0.000000 
							}
						}
					}
				}
			}
			JOINT rCollar
			{
				OFFSET -3.470700 6.669187 -0.816635 
				CHANNELS 3 Yrotation Zrotation Xrotation
				JOINT rShldr
				{
					OFFSET -3.198488 0.000000 0.000000 
					CHANNELS 3 Zrotation Yrotation Xrotation
					JOINT rForeArm
					{
						OFFSET -10.139888 0.000000 0.000000 
						CHANNELS 3 Yrotation Zrotation Xrotation
						JOINT rHand
						{
							OFFSET -8.370511 0.000000 0.000000 
							CHANNELS 3 Zrotation Yrotation Xrotation
							End Site
							{
								OFFSET -4.083176 0.000000 0.000000 
							}
						}
					}
				}
			}
		}
	}
	JOINT lThigh
	{
		OFFSET 5.308129 -1.633274 1.361059 
		CHANNELS 3 Xrotation Zrotation Yrotation
		JOINT lShin
		{
			OFFSET -2.041588 -20.007561 0.000000 
			CHANNELS 3 Xrotation Zrotation Yrotation
			JOINT lFoot
			{
				OFFSET 0.000000 -19.190928 -1.224953 
				CHANNELS 3 Xrotation Yrotation Zrotation
				End Site
				{
					OFFSET 0.000000 -2.449906 4.627600 
				}
			}
		}
	}
	JOINT rThigh
	{
		OFFSET -5.308129 -1.633274 1.361059 
		CHANNELS 3 Xrotation Zrotation Yrotation
		JOINT rShin
		{
			OFFSET 2.041588 -20.007561 0.000000 
			CHANNELS 3 Xrotation Zrotation Yrotation
			JOINT rFoot
			{
				OFFSET 0.000000 -19.190928 -1.224953 
				CHANNELS 3 Xrotation Yrotation Zrotation
				End Site
				{
					OFFSET 0.000000 -2.449906 4.627600 
				}
			}
		}
	}
}
MOTION
Frames: 6
Frame Time: 0.033333
-82.305321 51.972763 -24.517523 -8.291017 1.728516 -171.640625 29.822811 -7.874106 -5.629282 -13.906250 8.652345 1.993657 51.063168 8.107644 2.471410 -44.814457 1.953125 29.052738 2.000000 -2.000000 0.000000 -71.767578 -16.904299 17.956146 -71.498207 -1.355418 -2.832189 41.046040 35.572559 42.960106 -2.000000 2.000000 0.000000 59.238277 -7.324219 18.476563 93.064377 -0.033085 -3.010512 -84.151390 -40.838009 74.753456 -8.072135 5.065703 -0.009496 20.528927 -5.014882 -2.057956 -14.477718 4.645134 -4.751667 -12.092381 -24.161446 -39.883587 27.103291 4.533603 2.420506 17.197239 -10.493608 14.720782 
-82.301498 51.977642 -24.447050 171.718750 178.251953 7.832329 29.822811 -7.874106 -5.629282 -14.082032 8.662109 1.962891 51.063168 8.107644 2.471410 -46.953129 3.710938 22.402346 2.000000 -2.000000 0.000000 -71.865234 -16.533201 17.832031 -71.322144 -1.364603 -2.821878 41.286652 35.816734 42.718788 -2.000000 2.000000 0.000000 58.857422 -6.982422 18.994141 93.064377 -0.033085 -3.010512 -83.763145 -41.383179 74.980003 -7.875689 5.055236 0.151609 20.378199 -5.107311 -2.001342 -14.304917 4.872327 -4.833677 -12.295626 -23.844664 -38.826954 26.740118 4.552834 2.210747 17.463970 -10.380058 15.195306 
-82.285774 52.007267 -24.374613 171.904312 178.251953 6.953424 29.822811 -7.874106 -5.629282 -14.101563 8.486328 1.739722 51.063168 8.107644 2.471410 -50.332031 5.576171 12.128909 2.000000 -2.000000 0.000000 -71.611328 -16.113281 17.294920 -71.146614 -1.374917 -2.831058 41.409756 36.124722 42.926754 -2.000000 2.000000 0.000000 58.115231 -6.601562 19.755859 93.240158 -0.033085 -3.010512 -83.220917 -42.624649 74.880501 -7.696807 5.043255 0.362026 20.550777 -5.093361 -2.072307 -14.327019 5.436100 -5.466626 -12.734643 -23.417856 -37.366276 26.560467 4.552300 2.234412 17.849791 -10.389753 15.426858 
-82.285774 52.029079 -24.288286 171.904312 178.427734 5.928002 29.822811 -7.874106 -5.629282 -14.277344 8.505859 1.544413 51.063168 8.107644 2.471410 -53.964844 6.572265 1.368305 2.000000 -2.000000 0.000000 -71.738281 -16.142578 16.884766 -71.322144 -1.364603 -2.821878 41.611027 36.386963 43.350750 -2.000000 2.000000 0.000000 56.484379 -6.044921 20.438425 93.767494 -0.062333 -3.012204 -82.731659 -44.545540 74.538162 -7.664485 5.008886 0.851823 20.377380 -5.110737 -2.001894 -14.309473 6.151193 -5.582321 -13.135085 -22.967175 -36.432167 26.363478 4.124133 2.253045 18.263556 -9.586161 15.347435 
-82.221313 52.058510 -24.186798 171.904312 178.427734 4.697534 29.822811 -7.874106 -5.629282 -14.453124 8.349609 1.290481 51.063168 8.107644 2.471410 -55.927734 6.542969 -7.625840 2.000000 -2.000000 0.000000 -71.806641 -15.429688 16.179041 -72.023354 -1.155348 -2.755789 41.522701 37.048321 43.338879 -2.000000 2.000000 0.000000 55.205074 -5.742188 21.025391 94.988983 -0.284876 -3.054411 -81.672707 -46.550816 73.251793 -7.611556 5.132718 1.525709 20.008476 -4.971096 -1.929101 -14.218090 6.751731 -5.564943 -13.750740 -22.582777 -34.939480 26.191702 4.147233 2.254812 18.656799 -9.099130 15.406197 
-82.140656 52.078930 -24.073746 171.904312 178.603516 3.310785 29.822811 -7.874106 -5.629282 -14.453124 8.349609 1.114699 51.063168 8.107644 2.471410 -56.318359 6.220702 -14.481363 2.000000 -2.000000 0.000000 -72.060547 -15.449219 15.055996 -72.554039 -1.318681 -2.873432 42.147068 37.474297 44.155197 -2.000000 2.000000 0.000000 53.593750 -5.683593 21.220703 97.098602 -0.372056 -3.069231 -81.865143 -48.297295 71.875748 -7.357220 5.239449 2.577314 19.832409 -4.994056 -1.898586 -14.138540 7.399657 -5.335171 -14.209102 -22.099400 -33.121098 26.030655 4.583183 2.178682 18.563559 -9.674536 14.833097 
